<mxfile host="app.diagrams.net" modified="2023-12-13T12:19:15.128Z" agent="Mozilla/5.0 (Windows NT 10.0; Win64; x64) AppleWebKit/537.36 (KHTML, like Gecko) Chrome/120.0.0.0 Safari/537.36 Edg/120.0.0.0" etag="Rb7NYukcpk95LrPCjpC3" version="22.1.8" type="device">
  <diagram name="Seite-1" id="cQDGv568icX2jK9eyaG7">
    <mxGraphModel dx="2610" dy="1414" grid="1" gridSize="10" guides="1" tooltips="1" connect="1" arrows="1" fold="1" page="1" pageScale="1" pageWidth="827" pageHeight="1169" math="0" shadow="0">
      <root>
        <mxCell id="0" />
        <mxCell id="1" parent="0" />
        <mxCell id="p9tXRTTUSLaMBlbqjOts-1" value="Calculation" style="rounded=1;whiteSpace=wrap;html=1;" vertex="1" parent="1">
          <mxGeometry x="-25" y="540" width="120" height="60" as="geometry" />
        </mxCell>
        <mxCell id="p9tXRTTUSLaMBlbqjOts-2" value="" style="rounded=1;whiteSpace=wrap;html=1;" vertex="1" parent="1">
          <mxGeometry x="600" y="630" width="120" height="60" as="geometry" />
        </mxCell>
        <mxCell id="p9tXRTTUSLaMBlbqjOts-3" value="Command" style="rounded=1;whiteSpace=wrap;html=1;" vertex="1" parent="1">
          <mxGeometry x="630" y="460" width="120" height="60" as="geometry" />
        </mxCell>
        <mxCell id="p9tXRTTUSLaMBlbqjOts-13" style="edgeStyle=orthogonalEdgeStyle;rounded=0;orthogonalLoop=1;jettySize=auto;html=1;entryX=0.5;entryY=1;entryDx=0;entryDy=0;startArrow=classic;startFill=1;" edge="1" parent="1" target="p9tXRTTUSLaMBlbqjOts-6">
          <mxGeometry relative="1" as="geometry">
            <mxPoint x="380" y="420" as="sourcePoint" />
          </mxGeometry>
        </mxCell>
        <mxCell id="p9tXRTTUSLaMBlbqjOts-14" style="edgeStyle=orthogonalEdgeStyle;rounded=0;orthogonalLoop=1;jettySize=auto;html=1;entryX=0.5;entryY=1;entryDx=0;entryDy=0;" edge="1" parent="1" target="p9tXRTTUSLaMBlbqjOts-7">
          <mxGeometry relative="1" as="geometry">
            <mxPoint x="380" y="420" as="sourcePoint" />
            <Array as="points">
              <mxPoint x="380" y="360" />
              <mxPoint x="700" y="360" />
            </Array>
          </mxGeometry>
        </mxCell>
        <mxCell id="p9tXRTTUSLaMBlbqjOts-15" style="edgeStyle=orthogonalEdgeStyle;rounded=0;orthogonalLoop=1;jettySize=auto;html=1;entryX=0.5;entryY=1;entryDx=0;entryDy=0;" edge="1" parent="1" target="p9tXRTTUSLaMBlbqjOts-8">
          <mxGeometry relative="1" as="geometry">
            <mxPoint x="380" y="420" as="sourcePoint" />
            <Array as="points">
              <mxPoint x="380" y="360" />
              <mxPoint x="10" y="360" />
            </Array>
          </mxGeometry>
        </mxCell>
        <mxCell id="p9tXRTTUSLaMBlbqjOts-19" style="edgeStyle=orthogonalEdgeStyle;rounded=0;orthogonalLoop=1;jettySize=auto;html=1;entryX=0.5;entryY=1;entryDx=0;entryDy=0;" edge="1" parent="1" source="p9tXRTTUSLaMBlbqjOts-5" target="p9tXRTTUSLaMBlbqjOts-1">
          <mxGeometry relative="1" as="geometry" />
        </mxCell>
        <mxCell id="p9tXRTTUSLaMBlbqjOts-5" value="Market data API" style="rhombus;whiteSpace=wrap;html=1;" vertex="1" parent="1">
          <mxGeometry x="-20" y="680" width="110" height="120" as="geometry" />
        </mxCell>
        <mxCell id="p9tXRTTUSLaMBlbqjOts-6" value="Web APP or GUI" style="rounded=1;whiteSpace=wrap;html=1;" vertex="1" parent="1">
          <mxGeometry x="320" y="250" width="120" height="60" as="geometry" />
        </mxCell>
        <mxCell id="p9tXRTTUSLaMBlbqjOts-7" value="Rest API" style="shape=hexagon;perimeter=hexagonPerimeter2;whiteSpace=wrap;html=1;fixedSize=1;" vertex="1" parent="1">
          <mxGeometry x="640" y="240" width="120" height="80" as="geometry" />
        </mxCell>
        <mxCell id="p9tXRTTUSLaMBlbqjOts-8" value="Messenger API" style="shape=hexagon;perimeter=hexagonPerimeter2;whiteSpace=wrap;html=1;fixedSize=1;" vertex="1" parent="1">
          <mxGeometry x="-50" y="240" width="120" height="80" as="geometry" />
        </mxCell>
        <mxCell id="p9tXRTTUSLaMBlbqjOts-11" value="Enable live trading Bot to&lt;br style=&quot;border-color: var(--border-color); font-size: 11px;&quot;&gt;&lt;span style=&quot;font-size: 11px; background-color: rgb(255, 255, 255);&quot;&gt;access latest status, orders&lt;/span&gt;&lt;br style=&quot;border-color: var(--border-color); font-size: 11px;&quot;&gt;&lt;span style=&quot;font-size: 11px; background-color: rgb(255, 255, 255);&quot;&gt;and positions from paper trading bot&lt;/span&gt;&lt;br style=&quot;border-color: var(--border-color); font-size: 11px;&quot;&gt;&lt;br style=&quot;border-color: var(--border-color); font-size: 11px;&quot;&gt;&lt;span style=&quot;font-size: 11px; background-color: rgb(255, 255, 255);&quot;&gt;Technology:&lt;/span&gt;" style="text;html=1;align=center;verticalAlign=middle;resizable=0;points=[];autosize=1;strokeColor=none;fillColor=none;" vertex="1" parent="1">
          <mxGeometry x="600" y="128" width="200" height="90" as="geometry" />
        </mxCell>
        <mxCell id="p9tXRTTUSLaMBlbqjOts-12" value="&lt;b&gt;Fron-end App&lt;/b&gt;&lt;br&gt;Web Application giving access to &lt;br&gt;see status of the bot across &lt;br&gt;all the various tables&lt;br&gt;Technology: self host or exe.&amp;nbsp;" style="text;html=1;align=center;verticalAlign=middle;resizable=0;points=[];autosize=1;strokeColor=none;fillColor=none;" vertex="1" parent="1">
          <mxGeometry x="280" y="128" width="200" height="90" as="geometry" />
        </mxCell>
        <mxCell id="p9tXRTTUSLaMBlbqjOts-16" value="Data base" style="shape=cylinder3;whiteSpace=wrap;html=1;boundedLbl=1;backgroundOutline=1;size=15;" vertex="1" parent="1">
          <mxGeometry x="335" y="540" width="90" height="120" as="geometry" />
        </mxCell>
        <mxCell id="p9tXRTTUSLaMBlbqjOts-20" value="&lt;div style=&quot;text-align: left;&quot;&gt;&lt;span style=&quot;background-color: initial;&quot;&gt;Calculate of indicators&lt;/span&gt;&lt;/div&gt;&lt;div style=&quot;text-align: left;&quot;&gt;&lt;span style=&quot;background-color: initial;&quot;&gt;and triggers on&lt;/span&gt;&lt;/div&gt;&lt;div style=&quot;text-align: left;&quot;&gt;&lt;span style=&quot;background-color: initial;&quot;&gt;candle data&lt;/span&gt;&lt;/div&gt;&lt;div style=&quot;text-align: left;&quot;&gt;&lt;span style=&quot;background-color: initial;&quot;&gt;Technology&lt;/span&gt;&lt;/div&gt;" style="text;html=1;align=center;verticalAlign=middle;resizable=0;points=[];autosize=1;strokeColor=none;fillColor=none;" vertex="1" parent="1">
          <mxGeometry x="-170" y="535" width="140" height="70" as="geometry" />
        </mxCell>
      </root>
    </mxGraphModel>
  </diagram>
</mxfile>
